<svg height="511pt" viewBox="0 -106 511.99833 511" width="511pt" xmlns="http://www.w3.org/2000/svg"><path d="m494.921875 185.566406c-4.25-10.253906-6.8125-22.214844-9.519531-34.875-5.152344-24.066406-10.480469-48.953125-28.539063-67-18.050781-18.054687-42.9375-23.382812-67.007812-28.535156-33.289063-7.125-38.152344-9.335938-64.820313-26.839844-19.863281-13.039062-42.378906-27.816406-69.046875-27.816406s-49.183593 14.777344-69.046875 27.816406c-26.660156 17.5-31.53125 19.714844-64.820312 26.839844-24.066406 5.152344-48.957032 10.480469-67.003906 28.53125-18.0625 18.050781-23.390626 42.9375-28.542969 67.003906-4.140625 19.359375-5.746094 25.996094-11.550781 39.699219-9.671876 22.839844-24.289063 57.347656-7.011719 83.421875 11.453125 17.285156 33.328125 25.6875 66.875 25.6875h14.996093v-14.992188c0-91.574218 74.511719-166.070312 166.105469-166.070312 91.589844 0 166.105469 74.496094 166.105469 166.070312v14.992188h14.996094c33.546875 0 55.421875-8.402344 66.875-25.6875 17.71875-26.738281 2.207031-61.132812-9.042969-88.246094zm0 0" fill="#a8ca62"/><path d="m494.921875 185.566406c-4.25-10.253906-6.8125-22.214844-9.519531-34.875-5.152344-24.066406-10.480469-48.953125-28.539063-67-18.050781-18.054687-42.9375-23.382812-67.007812-28.535156-33.289063-7.125-38.152344-9.335938-64.820313-26.839844-19.863281-13.039062-42.378906-27.816406-69.046875-27.816406v117.9375c91.589844 0 166.105469 74.496094 166.105469 166.070312v14.992188h14.996094c33.546875 0 55.421875-8.402344 66.878906-25.6875 17.714844-26.738281 2.203125-61.132812-9.046875-88.246094zm0 0" fill="#70a857"/><path d="m255.988281 88.453125c-108.128906 0-196.097656 87.949219-196.097656 196.054687v14.992188h392.195313v-14.992188c0-108.105468-87.96875-196.054687-196.097657-196.054687zm0 0" fill="#fd935c"/><path d="m255.988281 88.453125v211.046875h196.097657v-14.992188c0-108.105468-87.96875-196.054687-196.097657-196.054687zm0 0" fill="#fd7560"/><path d="m221.617188 213.277344-21.207032-21.199219 53.679688-53.664063 21.207031 21.199219zm0 0" fill="#fff5db"/><path d="m255.988281 178.917969v-38.605469l19.308594 19.300781zm0 0" fill="#fee195"/><path d="m257.886719 249.539062-21.207031-21.203124 53.675781-53.664063 21.207031 21.203125zm0 0" fill="#fff5db"/><path d="m257.886719 249.539062-1.898438-1.902343v-38.605469l34.367188-34.359375 21.207031 21.203125zm0 0" fill="#fee195"/></svg>